<?xml version="1.0" encoding="utf-8"?>
<!-- Generator: Adobe Illustrator 19.0.0, SVG Export Plug-In . SVG Version: 6.00 Build 0)  -->
<svg version="1.1"
	 id="svg3201" inkscape:output_extension="org.inkscape.output.svg.inkscape" inkscape:version="0.46" sodipodi:docname="pyconlogo9.svg" sodipodi:version="0.32" xmlns:inkscape="http://www.inkscape.org/namespaces/inkscape" xmlns:cc="http://creativecommons.org/ns#" xmlns:sodipodi="http://sodipodi.sourceforge.net/DTD/sodipodi-0.dtd" xmlns:rdf="http://www.w3.org/1999/02/22-rdf-syntax-ns#" xmlns:dc="http://purl.org/dc/elements/1.1/" xmlns:svg="http://www.w3.org/2000/svg"
	 xmlns="http://www.w3.org/2000/svg" xmlns:xlink="http://www.w3.org/1999/xlink" x="0px" y="0px"
	 viewBox="-237.2 342.6 120.4 156.3" style="enable-background:new -237.2 342.6 120.4 156.3;" xml:space="preserve">
<style type="text/css">
	.st0{fill:#646464;}
	.st1{clip-path:url(#SVGID_2_);fill:#C17D11;}
	.st2{fill:none;}
	.st3{fill:url(#SVGID_4_);}
	.st4{fill:#E9B96E;}
</style>
<g>
	<path class="st0" d="M-219.2,498.4l-15.7-22.9v22.9h-2.3v-27.6l2.6-0.9l16.3,23.9v-23.3h2.2v27.9H-219.2z"/>
	<path class="st0" d="M-210.8,498.4l15.5-25.7H-210l1.1-2.2h18.7l-15.4,25.7h16.8l0,0v2.3L-210.8,498.4L-210.8,498.4z"/>
	<path class="st0" d="M-183.3,498.4v-28h3.1c0.9,0,1.8,0,2.9,0c1,0,2,0,2.9,0c1.1,0,2.2,0.2,3.1,0.6c1,0.4,1.8,0.9,2.5,1.6
		s1.3,1.5,1.7,2.4s0.6,1.9,0.6,3s-0.2,2-0.6,2.9c-0.4,0.9-0.9,1.7-1.5,2.4c-0.7,0.7-1.5,1.2-2.4,1.6s-1.9,0.6-3,0.6h-6.1v13.1h-3.2
		V498.4z M-175,483.1c1.5,0,2.8-0.5,3.7-1.5s1.4-2.2,1.4-3.8c0-0.6-0.1-1.3-0.4-1.9s-0.6-1.2-1.1-1.6c-0.5-0.5-1-0.8-1.6-1.1
		c-0.6-0.3-1.3-0.4-2-0.4h-5.2v10.4h5.2L-175,483.1L-175,483.1z"/>
	<path class="st0" d="M-144.5,470.5h2.8V489c0,1.5-0.3,2.8-0.8,4s-1.2,2.3-2.2,3.1c-0.9,0.9-2,1.5-3.2,2s-2.6,0.7-4,0.7
		s-2.7-0.2-3.9-0.7s-2.3-1.1-3.1-2c-0.9-0.9-1.6-1.9-2.1-3.1s-0.8-2.5-0.8-4v-18l3.2-1.1v18.5c0,2.4,0.6,4.3,1.7,5.7
		c1.1,1.4,2.9,2.1,5.2,2c2.3,0,4.2-0.7,5.5-2.2c1.3-1.4,1.7-3.3,1.7-5.7L-144.5,470.5L-144.5,470.5z"/>
	<path class="st0" d="M-120.2,485.4h-5.5l1.1-2.2h7.4V495c-1.6,1.3-2.9,2.2-4.3,2.8c-1.5,0.6-3.1,0.8-4.9,0.8s-3.4-0.5-4.8-1.4
		s-2.2-2-3.1-3.4c-0.6-1-3.9-7-1.9-14.4c0.8-3.1,2.1-5.8,4.7-7.9c2-1.6,4.8-1.9,7.2-1.5c0.7,0.1,3.6,0.6,6.2,2.4l-1,1.8
		c-1-0.7-2.1-1.2-3.1-1.4c-1.1-0.3-2.2-0.4-3.3-0.4c-1.5,0-2.7,0.4-3.7,1.1c-1,0.8-1.8,1.7-2.4,2.9c-0.6,1.1-1,2.4-1.3,3.8
		s-0.4,2.7-0.4,3.9c0,1.1,0.1,2.4,0.4,3.8c0.3,1.4,0.7,2.7,1.3,3.9c0.6,1.2,1.4,2.2,2.4,3.1c1,0.8,2.2,1.2,3.6,1.2
		c1.1,0,2.2-0.2,3-0.5c0.9-0.3,1.7-0.7,2.6-1.2v-9L-120.2,485.4L-120.2,485.4z"/>
</g>
<g>
	<g>
		<g>
			<defs>
				<rect id="SVGID_1_" x="-236.7" y="343.4" width="119.9" height="116.2"/>
			</defs>
			<clipPath id="SVGID_2_">
				<use xlink:href="#SVGID_1_"  style="overflow:visible;"/>
			</clipPath>
			<path class="st1" d="M-124,387.1c-2-8-5.8-14-13.8-14h-10.4v12.3c0,9.5-8.1,17.6-17.3,17.6h-27.7c-7.6,0-13.8,6.5-13.8,14.1v26.4
				c0,7.5,6.5,11.9,13.8,14.1c4.6,1.3,9,2.1,13.7,2.1c4.3,0,8.9-0.7,13.9-2.1c7-2,13.8-6.1,13.8-14.1v-10.6h-27.7v-3.5h41.5
				c8,0,11-5.6,13.8-14C-121.1,406.5-121.2,398.2-124,387.1z M-163.8,439.8c2.9,0,5.2,2.3,5.2,5.3c0,2.9-2.3,5.3-5.2,5.3
				s-5.2-2.4-5.2-5.3C-169,442.1-166.7,439.8-163.8,439.8z"/>
		</g>
	</g>
	<rect x="-236.7" y="343.4" class="st2" width="119.9" height="116.2"/>
</g>
<g>
	<g>
		
			<linearGradient id="SVGID_4_" gradientUnits="userSpaceOnUse" x1="-232.8719" y1="350.9398" x2="-171.5681" y2="405.0311" gradientTransform="matrix(1 0 0 1 0 0.78)">
			<stop  offset="0" style="stop-color:#599ED3"/>
			<stop  offset="1" style="stop-color:#306998"/>
		</linearGradient>
		<path id="SVGID_3_" class="st3" d="M-180,343.4c-4.7,0-9.3,0.4-13.2,1.1c-11.7,2.1-13.8,6.4-13.8,14.4v10.5h27.7v3.5h-38.1
			c-8,0-15.1,4.8-17.3,14c-2.5,10.5-2.7,17.1,0,28.1c2,8.2,6.7,14,14.7,14h9.5v-12.6c0-9.1,7.9-17.2,17.3-17.2h27.7
			c7.7,0,13.8-6.3,13.8-14.1v-26.4c0-7.5-6.3-13.1-13.8-14.4C-170.3,343.8-175.2,343.4-180,343.4L-180,343.4z M-194.9,351.9
			c2.9,0,5.2,2.4,5.2,5.3s-2.3,5.3-5.2,5.3s-5.2-2.4-5.2-5.3S-197.8,351.9-194.9,351.9L-194.9,351.9z"/>
	</g>
</g>
<path class="st4" d="M-117.7,403.7C-117.8,403.3-117.8,403.5-117.7,403.7c-0.2,2.1-0.4,4.1-0.7,6.2c0,0.4-0.1,0.8-0.2,1.2
	c-0.4,1.8-0.8,3.6-1.4,5.4c-2.7,8.2-6.5,16.9-17.8,16.9h-9.7v11.7C-127.5,440.8-115.2,442.9-117.7,403.7z"/>
</svg>
