<?xml version="1.0" encoding="utf-8"?>
<!-- Generator: Adobe Illustrator 19.0.0, SVG Export Plug-In . SVG Version: 6.00 Build 0)  -->
<svg version="1.1"
	 id="svg3201" xmlns:rdf="http://www.w3.org/1999/02/22-rdf-syntax-ns#" xmlns:cc="http://creativecommons.org/ns#" xmlns:sodipodi="http://sodipodi.sourceforge.net/DTD/sodipodi-0.dtd" xmlns:svg="http://www.w3.org/2000/svg" xmlns:dc="http://purl.org/dc/elements/1.1/" xmlns:inkscape="http://www.inkscape.org/namespaces/inkscape" sodipodi:docname="pyconlogo9.svg" inkscape:version="0.46" sodipodi:version="0.32" inkscape:output_extension="org.inkscape.output.svg.inkscape"
	 xmlns="http://www.w3.org/2000/svg" xmlns:xlink="http://www.w3.org/1999/xlink" x="0px" y="0px" viewBox="-119 386.1 664.3 68.4"
	 style="enable-background:new -119 386.1 664.3 68.4;" xml:space="preserve">
<style type="text/css">
	.st0{fill:#646464;}
	.st1{clip-path:url(#SVGID_2_);fill:#C17D11;}
	.st2{fill:none;}
	.st3{fill:url(#SVGID_4_);}
	.st4{fill:#E9B96E;}
</style>
<g>
	<g>
		<path class="st0" d="M-24.7,431.4l-12.8-18.7v18.7h-1.8v-22.6l2.1-0.8l13.4,19.5v-19h1.8v22.8L-24.7,431.4L-24.7,431.4z"/>
		<path class="st0" d="M-5.4,430.1c-0.4,0.3-0.9,0.5-1.2,0.8c-0.5,0.2-1,0.5-1.4,0.6c-0.6,0.2-1.1,0.3-1.8,0.4s-1.2,0.1-1.9,0
			c-0.7-0.1-1.2-0.2-1.8-0.4c-0.6-0.2-1.1-0.5-1.6-1c-0.9-0.8-1.5-1.7-2-2.9c-0.5-1.1-0.8-2.5-0.8-3.8c0-1.1,0.1-2.1,0.4-3.1
			c0.2-1.1,0.6-1.9,1.1-2.8s1.1-1.4,2-1.9c0.8-0.5,1.8-0.8,3-0.8c1.1,0,2,0.2,2.8,0.6s1.4,0.9,1.9,1.6s0.9,1.5,1.1,2.5
			c0.2,1,0.4,2.1,0.4,3.3h-10c-0.1,1.1,0,2,0.2,2.9s0.6,1.5,1,2.2c0.5,0.6,1,1.1,1.6,1.3c0.6,0.3,1.3,0.5,2,0.5
			c1-0.1,1.7-0.2,2.4-0.5s1.3-0.6,2-0.9L-5.4,430.1z M-8.2,421.7c0-0.6-0.1-1.1-0.2-1.7c-0.1-0.6-0.3-1.1-0.6-1.5
			c-0.3-0.5-0.6-0.9-1.1-1.1s-1-0.4-1.5-0.4c-0.7,0-1.1,0.1-1.6,0.4s-0.8,0.7-1.1,1.1s-0.5,1-0.7,1.5c-0.2,0.6-0.3,1.1-0.3,1.7H-8.2
			L-8.2,421.7z"/>
		<path class="st0" d="M11.8,431.8l-4.2-12.7L4.2,431L2,431.8L-3.2,416l2.4-0.9l4.1,12.4L6.5,416l2.4-0.9l4.1,12.4l3.4-12.4l1.6,0.6
			L13.7,431L11.8,431.8z"/>
		<path class="st0" d="M30.9,431.4l12.7-21H31.7l1-1.8H48l-12.6,21h13.7l0,0v1.8H30.9z"/>
		<path class="st0" d="M63.6,430c-0.4,0.3-0.9,0.5-1.2,0.8c-0.5,0.2-1,0.5-1.4,0.6c-0.6,0.2-1.1,0.3-1.8,0.4c-0.7,0.1-1.2,0.1-1.9,0
			c-0.7-0.1-1.2-0.2-1.8-0.4c-0.6-0.2-1.1-0.5-1.6-1c-0.9-0.8-1.5-1.7-2-2.9c-0.5-1.1-0.8-2.5-0.8-3.8c0-1.1,0.1-2.1,0.4-3.1
			c0.2-1.1,0.6-1.9,1.1-2.8s1.1-1.4,2-1.9c0.8-0.5,1.8-0.8,3-0.8c1.1,0,2,0.2,2.8,0.6s1.4,0.9,1.9,1.6s0.9,1.5,1.1,2.5
			s0.4,2.1,0.4,3.3h-9.7c-0.1,1.1,0,2,0.2,2.9s0.6,1.5,1,2.2c0.5,0.6,1,1.1,1.6,1.3c0.6,0.3,1.3,0.5,2,0.5c1-0.1,1.7-0.2,2.4-0.5
			c0.7-0.3,1.3-0.6,2-0.9L63.6,430z M60.8,421.6c0-0.6-0.1-1.1-0.2-1.7s-0.3-1.1-0.6-1.5s-0.6-0.9-1.1-1.1c-0.5-0.3-1-0.4-1.5-0.4
			c-0.7,0-1.1,0.1-1.6,0.4s-0.8,0.7-1.1,1.1s-0.5,1-0.7,1.5c-0.2,0.6-0.3,1.1-0.3,1.7H60.8L60.8,421.6z"/>
		<path class="st0" d="M79.2,428.9c-0.4,0.4-0.9,0.8-1.3,1.1c-0.5,0.4-1.1,0.7-1.6,0.9c-0.6,0.3-1.2,0.5-1.9,0.6
			c-0.7,0.2-1.4,0.2-2.3,0.2c-0.8,0-1.4-0.1-2-0.4c-0.7-0.3-1.1-0.7-1.6-1.1c-0.5-0.5-0.9-1.1-1.1-1.6c-0.3-0.7-0.4-1.3-0.4-2
			c0-0.8,0.2-1.4,0.5-2.1c0.3-0.6,0.7-1.1,1.1-1.5c0.5-0.4,1.1-0.8,1.7-1c0.7-0.2,1.3-0.3,2.1-0.3h4.3v-1.5c0-0.5-0.1-0.9-0.3-1.2
			c-0.2-0.4-0.5-0.7-0.8-1s-0.7-0.5-1.1-0.7c-0.5-0.2-0.9-0.2-1.2-0.2c-0.8,0-1.5,0.1-2.2,0.3c-0.7,0.2-1.3,0.5-2,0.9l-0.7-1.5
			c1-0.5,1.8-0.9,2.7-1.1c0.9-0.2,1.8-0.3,2.9-0.3c0.7,0,1.3,0.1,1.9,0.3c0.7,0.2,1.2,0.6,1.7,1s0.9,0.9,1.1,1.4
			c0.3,0.6,0.5,1.2,0.5,2L79.2,428.9z M76.6,423.2c-0.4,0-1,0-1.5,0c-0.7,0-1.2,0-1.9,0c-1.1,0-1.9,0.3-2.6,0.9s-1.1,1.3-1.1,2.3
			s0.4,1.7,1.1,2.5c0.7,0.7,1.5,1.1,2.7,1.1c0.8,0,1.5-0.2,2.1-0.5c0.7-0.3,1.1-0.6,1.3-0.9L76.6,423.2L76.6,423.2z"/>
		<path class="st0" d="M89.5,431.7c-1.7,0.2-3.2-0.1-4.1-0.9c-1-0.8-1.4-1.8-1.4-3.2v-20.7l2.6-0.9v21.6c0,1.1,0.3,1.7,0.8,2.1
			c0.6,0.4,1.2,0.6,2.2,0.6L89.5,431.7L89.5,431.7z"/>
		<path class="st0" d="M104,428.9c-0.4,0.4-0.9,0.8-1.3,1.1c-0.5,0.4-1.1,0.7-1.6,0.9c-0.6,0.3-1.2,0.5-1.9,0.6
			c-0.7,0.2-1.4,0.2-2.3,0.2c-0.8,0-1.4-0.1-2-0.4c-0.7-0.3-1.1-0.7-1.6-1.1c-0.5-0.5-0.9-1.1-1.1-1.6c-0.3-0.7-0.4-1.3-0.4-2
			c0-0.8,0.2-1.4,0.5-2.1c0.3-0.6,0.7-1.1,1.1-1.5c0.5-0.4,1.1-0.8,1.7-1c0.7-0.2,1.3-0.3,2.1-0.3h4.3v-1.5c0-0.5-0.1-0.9-0.3-1.2
			c-0.2-0.4-0.5-0.7-0.8-1s-0.7-0.5-1.1-0.7c-0.5-0.2-0.9-0.2-1.2-0.2c-0.8,0-1.5,0.1-2.2,0.3c-0.7,0.2-1.3,0.5-2,0.9l-0.7-1.5
			c1-0.5,1.8-0.9,2.7-1.1c0.9-0.2,1.8-0.3,2.9-0.3c0.7,0,1.3,0.1,1.9,0.3c0.7,0.2,1.2,0.6,1.7,1s0.9,0.9,1.1,1.4
			c0.3,0.6,0.5,1.2,0.5,2L104,428.9z M101.4,423.2c-0.4,0-1,0-1.5,0c-0.7,0-1.2,0-1.9,0c-1.1,0-1.9,0.3-2.6,0.9s-1.1,1.3-1.1,2.3
			s0.4,1.7,1.1,2.5c0.7,0.7,1.5,1.1,2.7,1.1c0.8,0,1.5-0.2,2.1-0.5c0.7-0.3,1.1-0.6,1.3-0.9L101.4,423.2L101.4,423.2z"/>
		<path class="st0" d="M118.4,431.4v-10.8c0-1.2-0.4-2.2-1.1-2.8c-0.8-0.7-1.6-1-2.9-1c-0.7,0-1.3,0.2-2,0.4
			c-0.7,0.3-1.1,0.6-1.6,0.9v13.3h-2.7v-13.7c0.7-0.5,1.3-1,2-1.2c0.7-0.4,1.4-0.7,2.2-0.9c0.7-0.2,1.4-0.4,2.3-0.5
			c0.9-0.1,1.7-0.1,2.7,0.2c1,0.2,1.8,0.7,2.6,1.3c0.8,0.7,1.1,1.5,1.1,2.7v12.1H118.4L118.4,431.4z"/>
		<path class="st0" d="M136,406.9l2.6-0.9v22.8c-1.1,0.9-2.3,1.5-3.5,2s-2.6,0.8-4.1,0.8c-1.1,0-2-0.3-2.8-0.8s-1.4-1.1-2-2
			s-0.9-1.7-1.1-2.7c-0.3-1-0.4-1.9-0.4-2.9s0.1-1.9,0.4-3c0.3-1,0.7-1.9,1.2-2.7c0.6-0.8,1.2-1.4,2-1.9c0.9-0.5,1.8-0.8,2.9-0.8
			c0.9,0,1.6,0.1,2.4,0.3c0.8,0.2,1.5,0.5,2.3,0.9v-9.3h0.1V406.9z M136,418.3c-0.7-0.4-1.3-0.8-2-1.1c-0.7-0.3-1.3-0.4-2.1-0.4
			c-0.9,0-1.5,0.2-2.1,0.7s-1,1.1-1.3,1.7c-0.3,0.7-0.6,1.4-0.7,2.2c-0.2,0.8-0.2,1.5-0.2,2.2s0.1,1.3,0.2,2.1
			c0.1,0.8,0.4,1.4,0.7,2.1s0.8,1.2,1.3,1.6c0.6,0.5,1.2,0.7,2,0.7c0.9,0,1.6-0.2,2.4-0.5c0.8-0.3,1.4-0.7,1.9-1L136,418.3
			L136,418.3z"/>
		<path class="st0" d="M276.1,408.6h2.1v15.1c0,1.2-0.2,2.3-0.7,3.3c-0.4,1-1.1,1.8-1.7,2.6c-0.8,0.7-1.6,1.2-2.7,1.6
			s-2.1,0.6-3.3,0.6c-1.1,0-2.2-0.2-3.2-0.6s-1.8-1-2.6-1.6c-0.8-0.7-1.3-1.5-1.7-2.6c-0.4-1-0.7-2.1-0.7-3.2v-14.7l2.7-1v15.2
			c0,2,0.5,3.5,1.3,4.7c1,1.1,2.4,1.7,4.3,1.6c1.9,0,3.4-0.6,4.5-1.7c1.1-1.1,1.6-2.7,1.6-4.6L276.1,408.6L276.1,408.6z"/>
		<path class="st0" d="M283.3,428.5c0.6,0.4,1.2,0.8,1.9,1.1c0.8,0.3,1.4,0.4,2.2,0.4c0.5,0,0.9-0.1,1.3-0.2
			c0.5-0.1,0.9-0.3,1.2-0.5c0.4-0.2,0.7-0.5,0.9-0.9c0.2-0.4,0.3-0.8,0.3-1.2c0-0.4-0.1-0.7-0.3-1c-0.2-0.3-0.4-0.5-0.7-0.7
			c-0.3-0.2-0.6-0.4-0.9-0.5c-0.3-0.1-0.6-0.3-0.9-0.4c-0.3-0.1-0.5-0.2-0.8-0.3c-0.3-0.1-0.5-0.2-0.8-0.3c-0.5-0.2-1-0.4-1.4-0.6
			c-0.5-0.2-1-0.5-1.3-0.8c-0.5-0.4-0.8-0.8-1.1-1.2c-0.3-0.5-0.5-1.1-0.5-1.8c0-0.8,0.2-1.4,0.5-2c0.3-0.6,0.8-1.1,1.2-1.5
			c0.5-0.4,1.1-0.7,1.8-0.9c0.7-0.2,1.3-0.3,2-0.3c0.9,0,1.6,0.1,2.4,0.4c0.8,0.3,1.5,0.6,2.2,1l-1,1.5c-1.2-0.7-2.4-1.1-3.4-1.1
			c-0.4,0-0.8,0.1-1.1,0.2c-0.4,0.1-0.8,0.3-1.1,0.5c-0.3,0.2-0.6,0.5-0.8,0.8c-0.2,0.3-0.3,0.7-0.3,1.1s0.1,0.9,0.4,1.1
			c0.3,0.3,0.6,0.5,1,0.7s0.9,0.4,1.3,0.6c0.5,0.2,1.1,0.4,1.5,0.6c0.5,0.2,1,0.4,1.4,0.6c0.5,0.2,1,0.5,1.3,0.9
			c0.5,0.4,0.8,0.8,1.1,1.2c0.3,0.5,0.5,1.1,0.5,1.8c0,0.9-0.2,1.6-0.6,2.2c-0.4,0.7-0.9,1.1-1.5,1.5c-0.6,0.4-1.3,0.8-2,1
			c-0.8,0.2-1.5,0.3-2.3,0.3c-1,0-1.8-0.2-2.7-0.5s-1.7-0.8-2.4-1.3L283.3,428.5z"/>
		<path class="st0" d="M309.6,430c-0.4,0.3-0.9,0.5-1.2,0.8c-0.5,0.2-1,0.5-1.4,0.6c-0.6,0.2-1.1,0.3-1.8,0.4
			c-0.7,0.1-1.2,0.1-1.9,0c-0.7-0.1-1.2-0.2-1.8-0.4c-0.6-0.2-1.1-0.5-1.6-1c-0.9-0.8-1.5-1.7-2-2.9c-0.5-1.1-0.8-2.5-0.8-3.8
			c0-1.1,0.1-2.1,0.4-3.1c0.2-1.1,0.6-1.9,1.1-2.8c0.6-0.9,1.1-1.4,2-1.9c0.8-0.5,1.8-0.8,3-0.8c1.2,0,2,0.2,2.8,0.6
			c0.8,0.4,1.4,0.9,1.9,1.6s0.9,1.5,1.1,2.5s0.4,2.1,0.4,3.3h-9.7c-0.1,1.1,0,2,0.2,2.9c0.2,0.9,0.6,1.5,1,2.2
			c0.5,0.6,1,1.1,1.6,1.3c0.6,0.3,1.3,0.5,2,0.5c1-0.1,1.7-0.2,2.4-0.5c0.7-0.3,1.3-0.6,2-0.9L309.6,430z M306.8,421.7
			c0-0.6-0.1-1.1-0.2-1.7c-0.1-0.6-0.3-1.1-0.6-1.5c-0.3-0.5-0.6-0.9-1.1-1.1c-0.5-0.3-1-0.4-1.5-0.4c-0.7,0-1.1,0.1-1.6,0.4
			s-0.8,0.7-1.1,1.1c-0.3,0.5-0.5,1-0.7,1.5c-0.2,0.6-0.3,1.1-0.3,1.7H306.8L306.8,421.7z"/>
		<path class="st0" d="M314,431.4v-13.2c1.1-1.1,2.3-2,3.8-2.5c0.8-0.3,1.6-0.5,2.4-0.7c0.9-0.1,1.8-0.1,2.9,0.1
			c-0.2,0.4-0.4,0.7-0.6,1.1s-0.4,0.8-0.5,1.1c-0.3-0.1-0.6-0.1-0.8-0.2c-0.3-0.1-0.5-0.1-0.7-0.1l0,0c-0.9,0-1.6,0.1-2.2,0.4
			s-1.1,0.7-1.6,1.1v12.9L314,431.4L314,431.4z"/>
		<path class="st0" d="M354.8,431.4v-13.2c1.1-1.1,2.3-2,3.8-2.5c0.8-0.3,1.6-0.5,2.4-0.7c0.9-0.1,1.8-0.1,2.9,0.1
			c-0.2,0.4-0.4,0.7-0.6,1.1s-0.4,0.8-0.5,1.1c-0.3-0.1-0.6-0.1-0.8-0.2c-0.3-0.1-0.5-0.1-0.7-0.1l0,0c-0.9,0-1.6,0.1-2.2,0.4
			s-1.1,0.7-1.6,1.1v12.9L354.8,431.4L354.8,431.4z"/>
		<path class="st0" d="M372.7,431.7c-1.2,0-2.3-0.3-3.2-0.8s-1.6-1.1-2.3-1.9c-0.6-0.8-1.1-1.7-1.3-2.8c-0.3-1.1-0.5-2.1-0.5-3.2
			s0.2-2.1,0.5-3.1c0.3-1,0.8-1.8,1.4-2.6c0.7-0.8,1.4-1.3,2.3-1.7c0.9-0.4,1.9-0.7,3.1-0.7s2.2,0.2,3.1,0.7
			c0.9,0.5,1.7,1.1,2.3,1.7c0.7,0.8,1.1,1.6,1.4,2.6c0.3,1,0.5,2,0.5,3.1s-0.2,2.1-0.5,3.2c-0.3,1.1-0.8,1.9-1.3,2.8
			c-0.6,0.8-1.4,1.4-2.3,1.9C375,431.4,373.9,431.7,372.7,431.7z M368.3,423.1c0,0.8,0.1,1.5,0.2,2.4c0.1,0.8,0.4,1.5,0.7,2.2
			c0.4,0.7,0.8,1.2,1.3,1.6c0.6,0.5,1.2,0.7,2.1,0.7c1,0,1.6-0.2,2.2-0.7c0.6-0.5,1.1-1,1.3-1.6c0.3-0.7,0.6-1.4,0.7-2.2
			c0.1-0.8,0.2-1.6,0.2-2.4s-0.1-1.4-0.2-2.2c-0.2-0.7-0.4-1.3-0.8-1.9s-0.8-1.1-1.3-1.4c-0.6-0.4-1.2-0.6-2.1-0.7
			c-1,0.1-1.6,0.3-2.2,0.7c-0.6,0.4-1,0.9-1.3,1.4c-0.4,0.6-0.6,1.2-0.7,1.9C368.4,421.7,368.3,422.4,368.3,423.1L368.3,423.1z"/>
		<path class="st0" d="M394,415.5h2.7v13.7c-1.1,0.8-2.3,1.4-3.6,1.9c-1.3,0.5-2.8,0.7-4.3,0.7c-0.6,0-1.2-0.1-1.8-0.3
			s-1.1-0.5-1.6-0.9s-0.9-0.9-1.2-1.4c-0.4-0.6-0.5-1.2-0.5-2v-11.1l2.7-1v11.2c0,1.2,0.4,2.2,1.1,2.9c0.8,0.7,1.7,1,3,1
			c0.7,0,1.3-0.2,2-0.5c0.7-0.3,1.1-0.6,1.6-0.9L394,415.5L394,415.5z"/>
		<path class="st0" d="M401.4,438.8v-20.9c0.6-0.6,1.1-1.1,1.7-1.3c0.6-0.4,1.3-0.7,2.3-1s2.1-0.5,3.4-0.5l0,0c1.1,0,2,0.2,2.8,0.7
			c0.8,0.5,1.4,1.1,2,1.9c0.5,0.8,0.9,1.7,1.1,2.8c0.3,1.1,0.4,2.1,0.4,3.3c0,1.1-0.1,2-0.4,3c-0.3,1-0.7,1.8-1.1,2.6
			c-0.6,0.8-1.2,1.3-2,1.8c-0.8,0.5-1.7,0.7-2.9,0.8c-0.9,0-1.7-0.1-2.5-0.4c-0.8-0.3-1.5-0.7-2.3-1.1v9.5L401.4,438.8z
			 M403.9,428.5c0.2,0.2,0.5,0.3,0.8,0.5c0.3,0.2,0.7,0.3,1.1,0.5c0.4,0.2,0.8,0.3,1.1,0.4c0.4,0.1,0.9,0.1,1.2,0.1
			c0.9-0.1,1.5-0.3,2.1-0.7c0.5-0.4,1-1,1.1-1.5c0.3-0.6,0.5-1.2,0.6-2c0.1-0.7,0.1-1.4,0.1-2.1s0-1.3-0.1-2.1s-0.3-1.4-0.5-2.1
			c-0.3-0.7-0.7-1.2-1.1-1.6c-0.5-0.5-1.1-0.7-2-0.8c-0.6,0-1.1,0-1.6,0.1s-1,0.2-1.3,0.4c-0.4,0.2-0.8,0.3-1,0.5
			c-0.3,0.2-0.5,0.3-0.6,0.4L403.9,428.5L403.9,428.5z"/>
		<path class="st0" d="M154.6,431.4v-22.9h2.5c0.8,0,1.5,0,2.4,0c0.9,0,1.6,0,2.4,0c1,0,1.7,0.2,2.6,0.5c0.8,0.3,1.4,0.8,2,1.3
			c0.6,0.6,1.1,1.2,1.3,2c0.4,0.8,0.5,1.5,0.5,2.4s-0.2,1.7-0.5,2.4c-0.3,0.8-0.8,1.3-1.2,1.9c-0.6,0.6-1.1,1-1.9,1.2
			s-1.5,0.5-2.4,0.5h-5.1v10.7H154.6z M161.4,418.9c1.2,0,2.3-0.4,3.1-1.2c0.8-0.8,1.1-1.8,1.1-3.2c0-0.6-0.1-1.1-0.3-1.5
			c-0.2-0.5-0.5-1-0.9-1.3c-0.4-0.4-0.8-0.7-1.3-1c-0.5-0.2-1.1-0.4-1.6-0.4h-4.3v8.5L161.4,418.9L161.4,418.9z"/>
		<path class="st0" d="M175.6,438c0.5-0.1,1.1-0.2,1.6-0.3c0.6-0.1,1.1-0.2,1.7-0.4c0.6-0.2,1.1-0.4,1.5-0.8
			c0.5-0.3,0.9-0.8,1.1-1.2c0.2-0.3,0.3-0.6,0.3-1c0.1-0.4,0.1-0.8,0.2-1.1c0-0.4,0.1-0.8,0.1-1.1c0-0.4,0-0.7,0-1
			c0-0.2,0-0.3,0-0.4c0,0,0-0.2,0-0.4c-0.4,0.2-1.1,0.5-2,0.8c-0.9,0.3-2.2,0.5-3.7,0.5c-0.6,0-1.2-0.1-1.8-0.3
			c-0.6-0.2-1.1-0.5-1.6-1c-0.5-0.4-0.9-0.9-1.2-1.4c-0.3-0.6-0.5-1.2-0.5-2V416l2.7-1v11.2l0,0c0,1.2,0.4,2.2,1.1,2.8s1.7,1,3,0.9
			c0.7,0,1.4-0.2,2.2-0.5c0.8-0.3,1.3-0.6,1.7-1v-13h2.7v14.4c0,0.5,0,1,0,1.5s-0.1,1.1-0.1,1.6c-0.1,0.6-0.2,1.1-0.3,1.6
			c-0.1,0.6-0.3,1-0.5,1.3c-0.4,0.7-0.8,1.1-1.4,1.6s-1.2,0.9-2,1.1c-0.8,0.3-1.4,0.5-2.2,0.7c-0.8,0.1-1.5,0.2-2.2,0.2L175.6,438z"
			/>
		<path class="st0" d="M195.7,431.6c-1.7,0.2-3.2-0.1-4.1-0.9c-0.9-0.8-1.5-1.8-1.5-3.2v-10.4h-1.8v-1.6h1.8V411l2.7-1v5.4h3v1.6h-3
			v10.3c0,1.1,0.3,1.7,0.8,2.1c0.6,0.4,1.2,0.6,2.2,0.6L195.7,431.6L195.7,431.6z"/>
		<path class="st0" d="M210.3,431.4v-10.2c0-0.5-0.1-1-0.2-1.4c-0.1-0.5-0.3-0.9-0.6-1.2s-0.6-0.7-1-1c-0.4-0.3-0.9-0.4-1.3-0.4
			c-0.9,0-1.6,0.2-2.4,0.6c-0.8,0.4-1.4,0.9-2.1,1.3v12.2H200v-24.4l2.7-0.9v11.2c0.8-0.6,1.6-1.1,2.6-1.3c0.9-0.3,1.9-0.5,3-0.5
			c0.7,0,1.3,0.1,1.9,0.4c0.6,0.3,1.1,0.6,1.5,1.1c0.4,0.5,0.8,1,1,1.6s0.4,1.2,0.4,1.9v11H210.3L210.3,431.4z"/>
		<path class="st0" d="M223.6,431.7c-1.2,0-2.3-0.3-3.2-0.8c-0.9-0.5-1.6-1.1-2.3-1.9c-0.6-0.8-1.1-1.7-1.3-2.8
			c-0.3-1.1-0.5-2.1-0.5-3.2s0.2-2.1,0.5-3.1c0.3-1,0.8-1.8,1.4-2.6c0.7-0.8,1.4-1.3,2.3-1.7c0.9-0.4,1.9-0.7,3.1-0.7
			c1.1,0,2.2,0.2,3.1,0.7s1.7,1.1,2.3,1.7c0.7,0.8,1.1,1.6,1.4,2.6s0.5,2,0.5,3.1s-0.2,2.1-0.5,3.2s-0.8,1.9-1.3,2.8
			c-0.6,0.8-1.4,1.4-2.3,1.9C225.9,431.4,224.8,431.7,223.6,431.7z M219.3,423.2c0,0.8,0.1,1.5,0.2,2.4c0.1,0.8,0.4,1.5,0.7,2.2
			c0.4,0.7,0.8,1.2,1.3,1.6c0.6,0.5,1.2,0.7,2.1,0.7c1,0,1.6-0.2,2.2-0.7c0.6-0.5,1.1-1,1.3-1.6c0.3-0.7,0.6-1.4,0.7-2.2
			c0.1-0.8,0.2-1.6,0.2-2.4s-0.1-1.4-0.2-2.2c-0.2-0.7-0.4-1.3-0.8-1.9s-0.8-1.1-1.3-1.4c-0.6-0.4-1.2-0.6-2.1-0.7
			c-1,0.1-1.6,0.3-2.2,0.7c-0.6,0.4-1,0.9-1.3,1.4c-0.4,0.6-0.6,1.2-0.7,1.9C219.3,421.8,219.2,422.4,219.3,423.2L219.3,423.2z"/>
		<path class="st0" d="M244.3,431.4v-10.8c0-1.2-0.4-2.2-1.1-2.8c-0.8-0.7-1.6-1-2.9-1c-0.7,0-1.3,0.2-2,0.4
			c-0.7,0.3-1.1,0.6-1.6,0.9v13.3H234v-13.7c0.7-0.5,1.3-1,2-1.2c0.7-0.4,1.4-0.7,2.2-0.9c0.7-0.2,1.4-0.4,2.3-0.5s1.7-0.1,2.7,0.2
			c1,0.2,1.8,0.7,2.6,1.3c0.8,0.7,1.1,1.5,1.1,2.7v12.1H244.3L244.3,431.4z"/>
	</g>
	<path class="st0" d="M347.4,420.8h-4.5l0.9-1.8h6v9.5c-1.3,1.1-2.4,1.8-3.5,2.3s-2.6,0.7-4,0.7s-2.8-0.4-3.9-1.1
		c-1.1-0.8-1.8-1.6-2.6-2.8c-0.6-0.9-3.2-5.7-1.6-11.7c0.7-2.6,1.7-4.8,3.8-6.4c1.6-1.2,3.9-1.5,5.9-1.2c0.6,0.1,3,0.5,5.1,2
		l-0.9,1.4c-0.9-0.6-1.7-1-2.6-1.1c-0.9-0.2-1.8-0.4-2.7-0.4c-1.2,0-2.2,0.3-3.1,1c-0.8,0.6-1.4,1.4-1.9,2.3c-0.5,1-0.9,2-1.1,3.1
		c-0.2,1.1-0.3,2.2-0.4,3.2c0,1,0.1,1.9,0.3,3.1c0.2,1.1,0.6,2.2,1.1,3.2s1.1,1.8,1.9,2.5s1.8,1.1,2.9,1.1c1,0,1.7-0.1,2.5-0.4
		c0.7-0.3,1.4-0.6,2.1-1.1V421h0.3V420.8z"/>
</g>
<g>
	<g>
		<g>
			<defs>
				<rect id="SVGID_1_" x="-118" y="388.2" width="66.6" height="64.6"/>
			</defs>
			<clipPath id="SVGID_2_">
				<use xlink:href="#SVGID_1_"  style="overflow:visible;"/>
			</clipPath>
			<path class="st1" d="M-55.3,412.4c-1.1-4.5-3.2-7.8-7.7-7.8h-5.8v6.8c0,5.3-4.5,9.8-9.6,9.8h-15.4c-4.2,0-7.7,3.6-7.7,7.8v14.7
				c0,4.2,3.6,6.6,7.7,7.8c2.5,0.7,5,1.2,7.6,1.2c2.4,0,4.9-0.4,7.7-1.2c3.9-1.1,7.7-3.4,7.7-7.8v-5.9h-15.4v-2h23.1
				c4.5,0,6.1-3.1,7.7-7.8C-53.7,423.2-53.8,418.6-55.3,412.4z M-77.5,441.7c1.6,0,2.9,1.3,2.9,2.9s-1.3,2.9-2.9,2.9
				c-1.6,0-2.9-1.3-2.9-2.9C-80.3,443-79,441.7-77.5,441.7z"/>
		</g>
	</g>
	<rect x="-118" y="388.2" class="st2" width="66.6" height="64.6"/>
</g>
<g>
	<g>
		
			<linearGradient id="SVGID_4_" gradientUnits="userSpaceOnUse" x1="-115.9466" y1="393.4861" x2="-81.8731" y2="423.5508" gradientTransform="matrix(1 0 0 1 0 -0.62)">
			<stop  offset="0" style="stop-color:#599ED3"/>
			<stop  offset="1" style="stop-color:#306998"/>
		</linearGradient>
		<path id="SVGID_3_" class="st3" d="M-86.4,388.2c-2.6,0-5.1,0.2-7.4,0.6c-6.5,1.2-7.7,3.6-7.7,8v5.9h15.4v2h-21.2
			c-4.5,0-8.4,2.7-9.6,7.8c-1.4,5.9-1.5,9.5,0,15.6c1.1,4.6,3.7,7.8,8.2,7.8h5.3v-7c0-5.1,4.4-9.6,9.6-9.6h15.4
			c4.3,0,7.7-3.5,7.7-7.8v-14.6c0-4.2-3.5-7.3-7.7-8C-81.1,388.4-83.8,388.2-86.4,388.2L-86.4,388.2z M-94.8,392.9
			c1.6,0,2.9,1.3,2.9,2.9s-1.3,2.9-2.9,2.9s-2.9-1.3-2.9-2.9C-97.6,394.2-96.4,392.9-94.8,392.9L-94.8,392.9z"/>
	</g>
</g>
<path class="st4" d="M-51.8,421.7C-51.8,421.5-51.9,421.6-51.8,421.7c-0.1,1.2-0.2,2.3-0.4,3.4c0,0.2-0.1,0.4-0.1,0.7
	c-0.2,1-0.5,2-0.8,3c-1.5,4.5-3.6,9.4-9.9,9.4h-5.4v6.5C-57.3,442.3-50.4,443.5-51.8,421.7z"/>
<g>
	<path class="st0" d="M433.9,437.5c-0.6-0.5-1.2-1-1.9-1.6s-1.4-1.3-2-2.1c-0.9-1-1.6-2.2-2.1-3.5s-1-2.8-1.2-4.6v0
		c-0.1-0.8-0.2-1.5-0.3-2.4c0-0.8-0.1-1.7-0.1-2.6c0-0.9,0.1-1.8,0.1-2.7c0-0.8,0.1-1.6,0.2-2.4c0.2-1.8,0.6-3.3,1.2-4.6
		c0.6-1.3,1.3-2.5,2.1-3.5c0.6-0.8,1.3-1.5,2-2.1c0.7-0.6,1.3-1.1,1.9-1.6l1.3,1.2c-1,0.9-1.8,1.8-2.6,2.6c-0.8,0.9-1.3,1.7-1.7,2.6
		c-0.4,0.9-0.7,1.7-0.9,2.4c-0.2,0.8-0.4,1.6-0.5,2.4c-0.1,0.8-0.2,1.7-0.3,2.6c0,0.9-0.1,1.9-0.1,2.9c0,1.1,0,2.1,0.1,2.9
		c0,0.9,0.1,1.7,0.3,2.6c0.1,0.8,0.3,1.6,0.5,2.4c0.2,0.8,0.5,1.6,0.9,2.4c0.4,0.9,1,1.8,1.7,2.6s1.6,1.7,2.6,2.6L433.9,437.5z"/>
	<path class="st0" d="M452.4,431.5l-12.9-18.8v18.8h-1.9v-22.7l2.1-0.7l13.4,19.6v-19.2h1.8v23H452.4z"/>
	<path class="st0" d="M458.6,431.5l12.7-21.2h-12l0.9-1.8h15.3l-12.7,21.1h13.8h0l0,1.9H458.6z"/>
	<path class="st0" d="M480.4,431.5v-23h2.5c0.7,0,1.5,0,2.4,0c0.8,0,1.6,0,2.4,0c0.9,0,1.8,0.2,2.6,0.5s1.5,0.8,2.1,1.3
		c0.6,0.6,1,1.2,1.4,2c0.3,0.8,0.5,1.6,0.5,2.4s-0.2,1.7-0.5,2.4c-0.3,0.7-0.7,1.4-1.3,1.9c-0.5,0.5-1.2,1-1.9,1.3
		c-0.8,0.3-1.6,0.5-2.4,0.5h-5v10.8H480.4z M487.3,418.9c1.3,0,2.3-0.4,3.1-1.2c0.8-0.8,1.2-1.8,1.2-3.1c0-0.5-0.1-1.1-0.3-1.6
		c-0.2-0.5-0.5-1-0.9-1.4c-0.4-0.4-0.8-0.7-1.3-0.9c-0.5-0.2-1-0.3-1.6-0.3h-4.3v8.5H487.3z"/>
	<path class="st0" d="M511.8,408.5h2.1v15.2c0,1.2-0.2,2.3-0.6,3.3c-0.4,1-1,1.9-1.8,2.6c-0.8,0.7-1.6,1.3-2.7,1.7
		c-1,0.4-2.1,0.6-3.3,0.6c-1.2,0-2.3-0.2-3.2-0.6c-1-0.4-1.9-0.9-2.6-1.7c-0.7-0.7-1.3-1.6-1.7-2.6c-0.4-1-0.6-2.1-0.6-3.3v-14.8
		l2.7-0.9l0,15.3c0,2,0.5,3.5,1.4,4.7c0.9,1.1,2.4,1.7,4.3,1.7c1.9,0,3.4-0.6,4.5-1.8c1.1-1.2,1.6-2.7,1.6-4.7V408.5z"/>
	<path class="st0" d="M535.1,436.4c1-0.9,1.8-1.8,2.6-2.6c0.7-0.9,1.3-1.7,1.7-2.6c0.4-0.9,0.7-1.7,0.9-2.4c0.2-0.8,0.4-1.6,0.5-2.4
		c0.1-0.8,0.2-1.7,0.3-2.6c0-0.9,0.1-1.9,0.1-2.9c0-1.1,0-2-0.1-2.9c0-0.9-0.1-1.7-0.3-2.6c-0.1-0.8-0.3-1.6-0.6-2.4
		c-0.2-0.8-0.5-1.6-0.9-2.4c-0.4-0.9-1-1.8-1.7-2.6c-0.8-0.9-1.6-1.7-2.6-2.6l1.3-1.2c0.6,0.5,1.2,1,1.9,1.6c0.7,0.6,1.4,1.3,2,2.1
		c0.9,1,1.6,2.2,2.1,3.5c0.6,1.3,1,2.8,1.2,4.6c0.1,0.8,0.2,1.5,0.2,2.4c0,0.8,0.1,1.7,0.1,2.7c0,0.9,0,1.8-0.1,2.6
		c0,0.8-0.1,1.6-0.3,2.4v0c-0.2,1.8-0.6,3.3-1.2,4.6s-1.3,2.5-2.1,3.5c-0.6,0.8-1.3,1.5-2,2.1s-1.3,1.2-1.9,1.6L535.1,436.4z"/>
</g>
<path class="st0" d="M531.1,420.7h-4.5l0.9-1.8h6v9.5c-1.3,1.1-2.4,1.8-3.5,2.3c-1.1,0.5-2.6,0.7-4,0.7c-1.4,0-2.8-0.4-3.9-1.1
	c-1.1-0.8-1.8-1.6-2.6-2.8c-0.6-0.9-3.2-5.7-1.6-11.7c0.7-2.6,1.7-4.8,3.8-6.4c1.6-1.2,3.9-1.5,5.9-1.2c0.6,0.1,3,0.5,5.1,2
	l-0.9,1.4c-0.9-0.6-1.7-1-2.6-1.1c-0.9-0.2-1.8-0.4-2.7-0.4c-1.2,0-2.2,0.3-3.1,1c-0.8,0.6-1.4,1.4-1.9,2.3c-0.5,1-0.9,2-1.1,3.1
	s-0.3,2.2-0.4,3.2c0,1,0.1,1.9,0.3,3.1c0.2,1.1,0.6,2.2,1.1,3.2s1.1,1.8,1.9,2.5c0.8,0.7,1.8,1.1,2.9,1.1c1,0,1.7-0.1,2.5-0.4
	c0.7-0.3,1.4-0.6,2.1-1.1v-7.2h0.3V420.7z"/>
</svg>
