<?xml version="1.0" encoding="utf-8"?>
<!-- Generator: Adobe Illustrator 19.0.0, SVG Export Plug-In . SVG Version: 6.00 Build 0)  -->
<svg version="1.1"
	 id="svg3201" inkscape:output_extension="org.inkscape.output.svg.inkscape" inkscape:version="0.46" sodipodi:docname="pyconlogo9.svg" sodipodi:version="0.32" xmlns:inkscape="http://www.inkscape.org/namespaces/inkscape" xmlns:cc="http://creativecommons.org/ns#" xmlns:sodipodi="http://sodipodi.sourceforge.net/DTD/sodipodi-0.dtd" xmlns:rdf="http://www.w3.org/1999/02/22-rdf-syntax-ns#" xmlns:dc="http://purl.org/dc/elements/1.1/" xmlns:svg="http://www.w3.org/2000/svg"
	 xmlns="http://www.w3.org/2000/svg" xmlns:xlink="http://www.w3.org/1999/xlink" x="0px" y="0px" viewBox="-111 364.5 371.7 112.4"
	 style="enable-background:new -111 364.5 371.7 112.4;" xml:space="preserve">
<style type="text/css">
	.st0{fill:#646464;}
	.st1{clip-path:url(#SVGID_2_);fill:#C17D11;}
	.st2{fill:none;}
	.st3{fill:url(#SVGID_4_);}
	.st4{fill:#E9B96E;}
</style>
<g>
	<path class="st0" d="M66.9,447.7l-29.7-43.3v43.3h-4.3v-52.3l4.9-1.7l30.9,45.2v-44.1h4.2v52.9H66.9z"/>
	<path class="st0" d="M82.8,447.7l29.3-48.7H84.5l2.1-4.2h35.3l-29.2,48.6h31.8h-0.1l0.1,4.3C124.5,447.7,82.8,447.7,82.8,447.7z"/>
	<path class="st0" d="M134.9,447.7v-53h5.8c1.7,0,3.5,0,5.4,0c2,0,3.8,0,5.4,0c2.1,0,4.1,0.4,5.9,1.1c1.8,0.7,3.4,1.7,4.7,3
		c1.3,1.3,2.4,2.8,3.2,4.5c0.8,1.7,1.2,3.6,1.2,5.6s-0.3,3.9-1,5.6c-0.7,1.7-1.7,3.2-2.9,4.5c-1.3,1.3-2.8,2.2-4.5,2.9
		c-1.7,0.7-3.6,1-5.6,1h-11.4v24.8H134.9z M150.7,418.7c2.9,0,5.3-0.9,7.1-2.8c1.8-1.8,2.7-4.3,2.7-7.2c0-1.2-0.3-2.4-0.8-3.6
		s-1.2-2.2-2.1-3.1c-0.9-0.9-1.9-1.6-3-2.1s-2.4-0.8-3.7-0.8h-9.8v19.7h9.6V418.7z"/>
	<path class="st0" d="M208.5,394.8h5.3v34.9c0,2.8-0.5,5.3-1.5,7.6c-1,2.3-2.3,4.3-4.1,5.9c-1.7,1.7-3.8,2.9-6.1,3.8
		c-2.4,0.9-4.9,1.3-7.6,1.3s-5.2-0.4-7.5-1.3c-2.3-0.9-4.3-2.2-6-3.8c-1.7-1.7-3-3.6-4-5.9s-1.5-4.8-1.5-7.6v-33.9l6.1-2.1l0.1,35.1
		c0,4.5,1.1,8.1,3.2,10.8c2.1,2.6,5.4,3.9,9.9,3.9c4.4,0,7.9-1.4,10.4-4.1s3.2-6.3,3.2-10.7v-33.9L208.5,394.8L208.5,394.8z"/>
</g>
<path class="st0" d="M254.7,423.2h-10.5l2-4.1l14.1,0.1v22.2c-3.1,2.5-5.5,4.2-8.3,5.3c-2.8,1.1-5.9,1.6-9.4,1.6
	c-3.4,0-6.4-0.9-9.1-2.6c-2.6-1.8-4.2-3.8-5.9-6.5c-1.2-1.9-7.4-13.4-3.7-27.4c1.6-5.9,4-11.1,8.9-14.9c3.8-3,9.1-3.6,13.8-2.9
	c1.3,0.2,6.9,1.2,11.8,4.6l-2,3.4c-2-1.3-3.9-2.2-6-2.7c-2-0.5-4.1-0.8-6.3-0.8c-2.8,0-5.1,0.7-7,2.1s-3.4,3.2-4.5,5.4
	s-2,4.6-2.4,7.2c-0.5,2.6-0.7,5.1-0.8,7.4c-0.1,2.1,0.2,4.5,0.7,7.2s1.4,5.2,2.5,7.5s2.7,4.3,4.5,5.8c1.9,1.6,4.1,2.4,6.8,2.4
	c2.2,0,4.1-0.3,5.8-0.9c1.7-0.6,3.3-1.4,4.9-2.4L254.7,423.2L254.7,423.2L254.7,423.2z"/>
<g>
	<g>
		<g>
			<defs>
				<rect id="SVGID_1_" x="-110.9" y="364.6" width="115.7" height="112.1"/>
			</defs>
			<clipPath id="SVGID_2_">
				<use xlink:href="#SVGID_1_"  style="overflow:visible;"/>
			</clipPath>
			<path class="st1" d="M-2.1,406.7c-1.9-7.7-5.6-13.5-13.4-13.5h-10v11.9c0,9.2-7.8,16.9-16.7,16.9h-26.7
				c-7.3,0-13.4,6.3-13.4,13.6V461c0,7.2,6.3,11.5,13.4,13.6c4.4,1.3,8.7,2,13.3,2c4.2,0,8.6-0.6,13.4-2c6.7-2,13.4-5.9,13.4-13.6
				v-10.2h-26.7v-3.4h40.1c7.8,0,10.7-5.4,13.4-13.5C0.7,425.5,0.6,417.4-2.1,406.7z M-40.5,457.6c2.8,0,5,2.3,5,5.1
				c0,2.8-2.2,5.1-5,5.1s-5-2.3-5-5.1S-43.3,457.6-40.5,457.6z"/>
		</g>
	</g>
	<rect x="-110.9" y="364.6" class="st2" width="115.7" height="112.1"/>
</g>
<g>
	<g>
		
			<linearGradient id="SVGID_4_" gradientUnits="userSpaceOnUse" x1="-107.0615" y1="373.8071" x2="-47.8876" y2="426.019" gradientTransform="matrix(1 0 0 1 0 -1.0199)">
			<stop  offset="0" style="stop-color:#599ED3"/>
			<stop  offset="1" style="stop-color:#306998"/>
		</linearGradient>
		<path id="SVGID_3_" class="st3" d="M-55.8,364.6c-4.6,0-8.9,0.4-12.8,1.1c-11.3,2-13.4,6.2-13.4,13.9v10.2h26.7v3.4h-36.8
			c-7.8,0-14.6,4.7-16.7,13.5c-2.5,10.2-2.6,16.5,0,27.2c1.9,7.9,6.4,13.5,14.2,13.5h9.2v-12.2c0-8.8,7.6-16.6,16.7-16.6H-42
			c7.4,0,13.4-6.1,13.4-13.6v-25.4c0-7.2-6.1-12.7-13.4-13.9C-46.5,364.9-51.3,364.6-55.8,364.6L-55.8,364.6z M-70.3,372.8
			c2.8,0,5,2.3,5,5.1c0,2.8-2.3,5.1-5,5.1c-2.8,0-5-2.3-5-5.1C-75.3,375.1-73,372.8-70.3,372.8L-70.3,372.8z"/>
	</g>
</g>
<path class="st4" d="M4,422.8C3.9,422.4,3.9,422.6,4,422.8c-0.2,2-0.4,4-0.7,5.9c0,0.3-0.1,0.7-0.2,1.2c-0.4,1.7-0.8,3.5-1.4,5.2
	c-2.6,7.9-6.3,16.3-17.2,16.3h-9.4v11.3C-5.5,458.6,6.4,460.6,4,422.8z"/>
</svg>
