<?xml version="1.0" encoding="utf-8"?>
<!-- Generator: Adobe Illustrator 19.0.0, SVG Export Plug-In . SVG Version: 6.00 Build 0)  -->
<svg version="1.1"
	 id="svg3201" inkscape:output_extension="org.inkscape.output.svg.inkscape" inkscape:version="0.46" sodipodi:docname="pyconlogo9.svg" sodipodi:version="0.32" xmlns:inkscape="http://www.inkscape.org/namespaces/inkscape" xmlns:cc="http://creativecommons.org/ns#" xmlns:sodipodi="http://sodipodi.sourceforge.net/DTD/sodipodi-0.dtd" xmlns:rdf="http://www.w3.org/1999/02/22-rdf-syntax-ns#" xmlns:dc="http://purl.org/dc/elements/1.1/" xmlns:svg="http://www.w3.org/2000/svg"
	 xmlns="http://www.w3.org/2000/svg" xmlns:xlink="http://www.w3.org/1999/xlink" x="0px" y="0px" viewBox="-119 386.1 339.2 70.8"
	 style="enable-background:new -119 386.1 339.2 70.8;" xml:space="preserve">
<style type="text/css">
	.st0{fill:#646464;}
	.st1{clip-path:url(#SVGID_2_);fill:#C17D11;}
	.st2{fill:none;}
	.st3{fill:url(#SVGID_4_);}
	.st4{fill:#E9B96E;}
</style>
<g>
	<path class="st0" d="M-25.7,411.5l-12.8-18.7v18.7h-1.8v-22.6l2.1-0.8l13.4,19.5v-19h1.8v22.8L-25.7,411.5L-25.7,411.5z"/>
	<path class="st0" d="M-6.4,410.2c-0.4,0.3-0.9,0.5-1.2,0.8c-0.5,0.2-1,0.5-1.4,0.6c-0.6,0.2-1.1,0.3-1.8,0.4s-1.2,0.1-1.9,0
		c-0.7-0.1-1.2-0.2-1.8-0.4c-0.6-0.2-1.1-0.5-1.6-1c-0.9-0.8-1.5-1.7-2-2.9c-0.5-1.1-0.8-2.5-0.8-3.8c0-1.1,0.1-2.1,0.4-3.1
		c0.2-1.1,0.6-1.9,1.1-2.8s1.1-1.4,2-1.9c0.8-0.5,1.8-0.8,3-0.8c1.1,0,2,0.2,2.8,0.6s1.4,0.9,1.9,1.6s0.9,1.5,1.1,2.5
		c0.2,1,0.4,2.1,0.4,3.3h-10c-0.1,1.1,0,2,0.2,2.9c0.2,0.9,0.6,1.5,1,2.2c0.5,0.6,1,1.1,1.6,1.3c0.6,0.3,1.3,0.5,2,0.5
		c1-0.1,1.7-0.2,2.4-0.5s1.3-0.6,2-0.9L-6.4,410.2z M-9.2,401.8c0-0.6-0.1-1.1-0.2-1.7c-0.1-0.6-0.3-1.1-0.6-1.5
		c-0.3-0.5-0.6-0.9-1.1-1.1s-1-0.4-1.5-0.4c-0.7,0-1.1,0.1-1.6,0.4s-0.8,0.7-1.1,1.1s-0.5,1-0.7,1.5c-0.2,0.6-0.3,1.1-0.3,1.7H-9.2
		L-9.2,401.8z"/>
	<path class="st0" d="M10.8,411.9l-4.2-12.7l-3.4,11.9L1,411.9l-5.2-15.8l2.4-0.9l4.1,12.4l3.2-11.5l2.4-0.9l4.1,12.4l3.4-12.4
		l1.6,0.6l-4.3,15.3L10.8,411.9z"/>
	<path class="st0" d="M29.9,411.5l12.7-21H30.7l1-1.8H47l-12.6,21h13.7l0,0v1.8H29.9z"/>
	<path class="st0" d="M62.6,410.1c-0.4,0.3-0.9,0.5-1.2,0.8c-0.5,0.2-1,0.5-1.4,0.6c-0.6,0.2-1.1,0.3-1.8,0.4
		c-0.7,0.1-1.2,0.1-1.9,0c-0.7-0.1-1.2-0.2-1.8-0.4c-0.6-0.2-1.1-0.5-1.6-1c-0.9-0.8-1.5-1.7-2-2.9c-0.5-1.1-0.8-2.5-0.8-3.8
		c0-1.1,0.1-2.1,0.4-3.1c0.2-1.1,0.6-1.9,1.1-2.8s1.1-1.4,2-1.9c0.8-0.5,1.8-0.8,3-0.8c1.1,0,2,0.2,2.8,0.6s1.4,0.9,1.9,1.6
		s0.9,1.5,1.1,2.5s0.4,2.1,0.4,3.3h-9.7c-0.1,1.1,0,2,0.2,2.9s0.6,1.5,1,2.2c0.5,0.6,1,1.1,1.6,1.3c0.6,0.3,1.3,0.5,2,0.5
		c1-0.1,1.7-0.2,2.4-0.5c0.7-0.3,1.3-0.6,2-0.9L62.6,410.1z M59.8,401.7c0-0.6-0.1-1.1-0.2-1.7s-0.3-1.1-0.6-1.5s-0.6-0.9-1.1-1.1
		c-0.5-0.3-1-0.4-1.5-0.4c-0.7,0-1.1,0.1-1.6,0.4s-0.8,0.7-1.1,1.1s-0.5,1-0.7,1.5c-0.2,0.6-0.3,1.1-0.3,1.7H59.8L59.8,401.7z"/>
	<path class="st0" d="M78.2,409c-0.4,0.4-0.9,0.8-1.3,1.1c-0.5,0.4-1.1,0.7-1.6,0.9c-0.6,0.3-1.2,0.5-1.9,0.6
		c-0.7,0.2-1.4,0.2-2.3,0.2c-0.8,0-1.4-0.1-2-0.4c-0.7-0.3-1.1-0.7-1.6-1.1c-0.5-0.5-0.9-1.1-1.1-1.6c-0.3-0.7-0.4-1.3-0.4-2
		c0-0.8,0.2-1.4,0.5-2.1c0.3-0.6,0.7-1.1,1.1-1.5c0.5-0.4,1.1-0.8,1.7-1c0.7-0.2,1.3-0.3,2.1-0.3h4.3v-1.5c0-0.5-0.1-0.9-0.3-1.2
		c-0.2-0.4-0.5-0.7-0.8-1s-0.7-0.5-1.1-0.7c-0.5-0.2-0.9-0.2-1.2-0.2c-0.8,0-1.5,0.1-2.2,0.3c-0.7,0.2-1.3,0.5-2,0.9l-0.7-1.5
		c1-0.5,1.8-0.9,2.7-1.1c0.9-0.2,1.8-0.3,2.9-0.3c0.7,0,1.3,0.1,1.9,0.3c0.7,0.2,1.2,0.6,1.7,1s0.9,0.9,1.1,1.4
		c0.3,0.6,0.5,1.2,0.5,2C78.2,400.2,78.2,409,78.2,409z M75.6,403.3c-0.4,0-1,0-1.5,0c-0.7,0-1.2,0-1.9,0c-1.1,0-1.9,0.3-2.6,0.9
		s-1.1,1.3-1.1,2.3s0.4,1.7,1.1,2.5c0.7,0.7,1.5,1.1,2.7,1.1c0.8,0,1.5-0.2,2.1-0.5c0.7-0.3,1.1-0.6,1.3-0.9L75.6,403.3L75.6,403.3z
		"/>
	<path class="st0" d="M88.5,411.8c-1.7,0.2-3.2-0.1-4.1-0.9c-1-0.8-1.4-1.8-1.4-3.2V387l2.6-0.9v21.6c0,1.1,0.3,1.7,0.8,2.1
		c0.6,0.4,1.2,0.6,2.2,0.6L88.5,411.8L88.5,411.8z"/>
	<path class="st0" d="M103,409c-0.4,0.4-0.9,0.8-1.3,1.1c-0.5,0.4-1.1,0.7-1.6,0.9c-0.6,0.3-1.2,0.5-1.9,0.6
		c-0.7,0.2-1.4,0.2-2.3,0.2c-0.8,0-1.4-0.1-2-0.4c-0.7-0.3-1.1-0.7-1.6-1.1c-0.5-0.5-0.9-1.1-1.1-1.6c-0.3-0.7-0.4-1.3-0.4-2
		c0-0.8,0.2-1.4,0.5-2.1c0.3-0.6,0.7-1.1,1.1-1.5c0.5-0.4,1.1-0.8,1.7-1c0.7-0.2,1.3-0.3,2.1-0.3h4.3v-1.5c0-0.5-0.1-0.9-0.3-1.2
		c-0.2-0.4-0.5-0.7-0.8-1s-0.7-0.5-1.1-0.7c-0.5-0.2-0.9-0.2-1.2-0.2c-0.8,0-1.5,0.1-2.2,0.3c-0.7,0.2-1.3,0.5-2,0.9l-0.7-1.5
		c1-0.5,1.8-0.9,2.7-1.1c0.9-0.2,1.8-0.3,2.9-0.3c0.7,0,1.3,0.1,1.9,0.3c0.7,0.2,1.2,0.6,1.7,1s0.9,0.9,1.1,1.4
		c0.3,0.6,0.5,1.2,0.5,2C103,400.2,103,409,103,409z M100.4,403.3c-0.4,0-1,0-1.5,0c-0.7,0-1.2,0-1.9,0c-1.1,0-1.9,0.3-2.6,0.9
		s-1.1,1.3-1.1,2.3s0.4,1.7,1.1,2.5c0.7,0.7,1.5,1.1,2.7,1.1c0.8,0,1.5-0.2,2.1-0.5c0.7-0.3,1.1-0.6,1.3-0.9L100.4,403.3
		L100.4,403.3z"/>
	<path class="st0" d="M117.4,411.5v-10.8c0-1.2-0.4-2.2-1.1-2.8c-0.8-0.7-1.6-1-2.9-1c-0.7,0-1.3,0.2-2,0.4
		c-0.7,0.3-1.1,0.6-1.6,0.9v13.3h-2.7v-13.7c0.7-0.5,1.3-1,2-1.2c0.7-0.4,1.4-0.7,2.2-0.9c0.7-0.2,1.4-0.4,2.3-0.5
		c0.9-0.1,1.7-0.1,2.7,0.2c1,0.2,1.8,0.7,2.6,1.3c0.8,0.7,1.1,1.5,1.1,2.7v12.1H117.4L117.4,411.5z"/>
	<path class="st0" d="M135,387l2.6-0.9v22.8c-1.1,0.9-2.3,1.5-3.5,2s-2.6,0.8-4.1,0.8c-1.1,0-2-0.3-2.8-0.8s-1.4-1.1-2-2
		s-0.9-1.7-1.1-2.7c-0.3-1-0.4-1.9-0.4-2.9s0.1-1.9,0.4-3c0.3-1,0.7-1.9,1.2-2.7c0.6-0.8,1.2-1.4,2-1.9c0.9-0.5,1.8-0.8,2.9-0.8
		c0.9,0,1.6,0.1,2.4,0.3c0.8,0.2,1.5,0.5,2.3,0.9v-9.3h0.1V387z M135,398.4c-0.7-0.4-1.3-0.8-2-1.1c-0.7-0.3-1.3-0.4-2.1-0.4
		c-0.9,0-1.5,0.2-2.1,0.7s-1,1.1-1.3,1.7c-0.3,0.7-0.6,1.4-0.7,2.2c-0.2,0.8-0.2,1.5-0.2,2.2s0.1,1.3,0.2,2.1
		c0.1,0.8,0.4,1.4,0.7,2.1s0.8,1.2,1.3,1.6c0.6,0.5,1.2,0.7,2,0.7c0.9,0,1.6-0.2,2.4-0.5c0.8-0.3,1.4-0.7,1.9-1L135,398.4L135,398.4
		z"/>
	<path class="st0" d="M81.2,425.9h2.1V441c0,1.2-0.2,2.3-0.7,3.3c-0.4,1-1.1,1.8-1.7,2.6c-0.8,0.7-1.6,1.2-2.7,1.6s-2.1,0.6-3.3,0.6
		c-1.1,0-2.2-0.2-3.2-0.6s-1.8-1-2.6-1.6c-0.8-0.7-1.3-1.5-1.7-2.6c-0.4-1-0.7-2.1-0.7-3.2v-14.7l2.7-1v15.2c0,2,0.5,3.5,1.3,4.7
		c1,1.1,2.4,1.7,4.3,1.6c1.9,0,3.4-0.6,4.5-1.7s1.6-2.7,1.6-4.6L81.2,425.9L81.2,425.9z"/>
	<path class="st0" d="M88.4,445.8c0.6,0.4,1.2,0.8,1.9,1.1c0.8,0.3,1.4,0.4,2.2,0.4c0.5,0,0.9-0.1,1.3-0.2c0.5-0.1,0.9-0.3,1.2-0.5
		c0.4-0.2,0.7-0.5,0.9-0.9c0.2-0.4,0.3-0.8,0.3-1.2c0-0.4-0.1-0.7-0.3-1c-0.2-0.3-0.4-0.5-0.7-0.7c-0.3-0.2-0.6-0.4-0.9-0.5
		s-0.6-0.3-0.9-0.4s-0.5-0.2-0.8-0.3s-0.5-0.2-0.8-0.3c-0.5-0.2-1-0.4-1.4-0.6c-0.5-0.2-1-0.5-1.3-0.8c-0.5-0.4-0.8-0.8-1.1-1.2
		c-0.3-0.5-0.5-1.1-0.5-1.8c0-0.8,0.2-1.4,0.5-2s0.8-1.1,1.2-1.5c0.5-0.4,1.1-0.7,1.8-0.9c0.7-0.2,1.3-0.3,2-0.3
		c0.9,0,1.6,0.1,2.4,0.4s1.5,0.6,2.2,1l-1,1.5c-1.2-0.7-2.4-1.1-3.4-1.1c-0.4,0-0.8,0.1-1.1,0.2c-0.4,0.1-0.8,0.3-1.1,0.5
		c-0.3,0.2-0.6,0.5-0.8,0.8c-0.2,0.3-0.3,0.7-0.3,1.1s0.1,0.9,0.4,1.1c0.3,0.3,0.6,0.5,1,0.7s0.9,0.4,1.3,0.6
		c0.5,0.2,1.1,0.4,1.5,0.6c0.5,0.2,1,0.4,1.4,0.6c0.5,0.2,1,0.5,1.3,0.9c0.5,0.4,0.8,0.8,1.1,1.2c0.3,0.5,0.5,1.1,0.5,1.8
		c0,0.9-0.2,1.6-0.6,2.2c-0.4,0.7-0.9,1.1-1.5,1.5s-1.3,0.8-2,1c-0.8,0.2-1.5,0.3-2.3,0.3c-1,0-1.8-0.2-2.7-0.5
		c-0.9-0.3-1.7-0.8-2.4-1.3L88.4,445.8z"/>
	<path class="st0" d="M114.7,447.3c-0.4,0.3-0.9,0.5-1.2,0.8c-0.5,0.2-1,0.5-1.4,0.6c-0.6,0.2-1.1,0.3-1.8,0.4s-1.2,0.1-1.9,0
		c-0.7-0.1-1.2-0.2-1.8-0.4c-0.6-0.2-1.1-0.5-1.6-1c-0.9-0.8-1.5-1.7-2-2.9c-0.5-1.1-0.8-2.5-0.8-3.8c0-1.1,0.1-2.1,0.4-3.1
		c0.2-1.1,0.6-1.9,1.1-2.8c0.6-0.9,1.1-1.4,2-1.9c0.8-0.5,1.8-0.8,3-0.8s2,0.2,2.8,0.6s1.4,0.9,1.9,1.6s0.9,1.5,1.1,2.5
		c0.2,1,0.4,2.1,0.4,3.3h-9.7c-0.1,1.1,0,2,0.2,2.9s0.6,1.5,1,2.2c0.5,0.6,1,1.1,1.6,1.3c0.6,0.3,1.3,0.5,2,0.5
		c1-0.1,1.7-0.2,2.4-0.5s1.3-0.6,2-0.9L114.7,447.3z M111.9,439c0-0.6-0.1-1.1-0.2-1.7c-0.1-0.6-0.3-1.1-0.6-1.5
		c-0.3-0.5-0.6-0.9-1.1-1.1c-0.5-0.3-1-0.4-1.5-0.4c-0.7,0-1.1,0.1-1.6,0.4s-0.8,0.7-1.1,1.1c-0.3,0.5-0.5,1-0.7,1.5
		c-0.2,0.6-0.3,1.1-0.3,1.7H111.9L111.9,439z"/>
	<path class="st0" d="M119.1,448.7v-13.2c1.1-1.1,2.3-2,3.8-2.5c0.8-0.3,1.6-0.5,2.4-0.7c0.9-0.1,1.8-0.1,2.9,0.1
		c-0.2,0.4-0.4,0.7-0.6,1.1c-0.2,0.4-0.4,0.8-0.5,1.1c-0.3-0.1-0.6-0.1-0.8-0.2c-0.3-0.1-0.5-0.1-0.7-0.1l0,0
		c-0.9,0-1.6,0.1-2.2,0.4c-0.6,0.3-1.1,0.7-1.6,1.1v12.9L119.1,448.7L119.1,448.7z"/>
	<path class="st0" d="M159.9,448.7v-13.2c1.1-1.1,2.3-2,3.8-2.5c0.8-0.3,1.6-0.5,2.4-0.7c0.9-0.1,1.8-0.1,2.9,0.1
		c-0.2,0.4-0.4,0.7-0.6,1.1c-0.2,0.4-0.4,0.8-0.5,1.1c-0.3-0.1-0.6-0.1-0.8-0.2c-0.3-0.1-0.5-0.1-0.7-0.1l0,0
		c-0.9,0-1.6,0.1-2.2,0.4c-0.6,0.3-1.1,0.7-1.6,1.1v12.9L159.9,448.7L159.9,448.7z"/>
	<path class="st0" d="M177.8,449c-1.2,0-2.3-0.3-3.2-0.8s-1.6-1.1-2.3-1.9c-0.6-0.8-1.1-1.7-1.3-2.8c-0.3-1.1-0.5-2.1-0.5-3.2
		s0.2-2.1,0.5-3.1s0.8-1.8,1.4-2.6c0.7-0.8,1.4-1.3,2.3-1.7c0.9-0.4,1.9-0.7,3.1-0.7s2.2,0.2,3.1,0.7c0.9,0.5,1.7,1.1,2.3,1.7
		c0.7,0.8,1.1,1.6,1.4,2.6c0.3,1,0.5,2,0.5,3.1s-0.2,2.1-0.5,3.2s-0.8,1.9-1.3,2.8c-0.6,0.8-1.4,1.4-2.3,1.9
		C180.1,448.7,179,449,177.8,449z M173.4,440.4c0,0.8,0.1,1.5,0.2,2.4c0.1,0.8,0.4,1.5,0.7,2.2c0.4,0.7,0.8,1.2,1.3,1.6
		c0.6,0.5,1.2,0.7,2.1,0.7c1,0,1.6-0.2,2.2-0.7c0.6-0.5,1.1-1,1.3-1.6c0.3-0.7,0.6-1.4,0.7-2.2c0.1-0.8,0.2-1.6,0.2-2.4
		s-0.1-1.4-0.2-2.2c-0.2-0.7-0.4-1.3-0.8-1.9c-0.4-0.6-0.8-1.1-1.3-1.4c-0.6-0.4-1.2-0.6-2.1-0.7c-1,0.1-1.6,0.3-2.2,0.7
		c-0.6,0.4-1,0.9-1.3,1.4c-0.4,0.6-0.6,1.2-0.7,1.9C173.5,439,173.4,439.7,173.4,440.4L173.4,440.4z"/>
	<path class="st0" d="M199.1,432.8h2.7v13.7c-1.1,0.8-2.3,1.4-3.6,1.9s-2.8,0.7-4.3,0.7c-0.6,0-1.2-0.1-1.8-0.3s-1.1-0.5-1.6-0.9
		s-0.9-0.9-1.2-1.4c-0.4-0.6-0.5-1.2-0.5-2v-11.1l2.7-1v11.2c0,1.2,0.4,2.2,1.1,2.9c0.8,0.7,1.7,1,3,1c0.7,0,1.3-0.2,2-0.5
		s1.1-0.6,1.6-0.9L199.1,432.8L199.1,432.8z"/>
	<path class="st0" d="M206.5,456.1v-20.9c0.6-0.6,1.1-1.1,1.7-1.3c0.6-0.4,1.3-0.7,2.3-1s2.1-0.5,3.4-0.5l0,0c1.1,0,2,0.2,2.8,0.7
		s1.4,1.1,2,1.9c0.5,0.8,0.9,1.7,1.1,2.8c0.3,1.1,0.4,2.1,0.4,3.3c0,1.1-0.1,2-0.4,3c-0.3,1-0.7,1.8-1.1,2.6c-0.6,0.8-1.2,1.3-2,1.8
		s-1.7,0.7-2.9,0.8c-0.9,0-1.7-0.1-2.5-0.4s-1.5-0.7-2.3-1.1v9.5L206.5,456.1z M209,445.8c0.2,0.2,0.5,0.3,0.8,0.5s0.7,0.3,1.1,0.5
		c0.4,0.2,0.8,0.3,1.1,0.4c0.4,0.1,0.9,0.1,1.2,0.1c0.9-0.1,1.5-0.3,2.1-0.7c0.5-0.4,1-1,1.1-1.5c0.3-0.6,0.5-1.2,0.6-2
		c0.1-0.7,0.1-1.4,0.1-2.1s0-1.3-0.1-2.1s-0.3-1.4-0.5-2.1c-0.3-0.7-0.7-1.2-1.1-1.6c-0.5-0.5-1.1-0.7-2-0.8c-0.6,0-1.1,0-1.6,0.1
		s-1,0.2-1.3,0.4c-0.4,0.2-0.8,0.3-1,0.5c-0.3,0.2-0.5,0.3-0.6,0.4L209,445.8L209,445.8z"/>
	<path class="st0" d="M-40.3,448.7v-22.9h2.5c0.8,0,1.5,0,2.4,0c0.9,0,1.6,0,2.4,0c1,0,1.7,0.2,2.6,0.5c0.8,0.3,1.4,0.8,2,1.3
		c0.6,0.6,1.1,1.2,1.3,2c0.4,0.8,0.5,1.5,0.5,2.4s-0.2,1.7-0.5,2.4c-0.3,0.8-0.8,1.3-1.2,1.9c-0.6,0.6-1.1,1-1.9,1.2
		s-1.5,0.5-2.4,0.5h-5.1v10.7H-40.3z M-33.5,436.2c1.2,0,2.3-0.4,3.1-1.2c0.8-0.8,1.1-1.8,1.1-3.2c0-0.6-0.1-1.1-0.3-1.5
		c-0.2-0.5-0.5-1-0.9-1.3c-0.4-0.4-0.8-0.7-1.3-1c-0.5-0.2-1.1-0.4-1.6-0.4h-4.3v8.5L-33.5,436.2L-33.5,436.2z"/>
	<path class="st0" d="M-19.3,455.3c0.5-0.1,1.1-0.2,1.6-0.3c0.6-0.1,1.1-0.2,1.7-0.4c0.6-0.2,1.1-0.4,1.5-0.8
		c0.5-0.3,0.9-0.8,1.1-1.2c0.2-0.3,0.3-0.6,0.3-1c0.1-0.4,0.1-0.8,0.2-1.1c0-0.4,0.1-0.8,0.1-1.1c0-0.4,0-0.7,0-1c0-0.2,0-0.3,0-0.4
		c0,0,0-0.2,0-0.4c-0.4,0.2-1.1,0.5-2,0.8s-2.2,0.5-3.7,0.5c-0.6,0-1.2-0.1-1.8-0.3c-0.6-0.2-1.1-0.5-1.6-1
		c-0.5-0.4-0.9-0.9-1.2-1.4c-0.3-0.6-0.5-1.2-0.5-2v-10.9l2.7-1v11.2l0,0c0,1.2,0.4,2.2,1.1,2.8c0.7,0.6,1.7,1,3,0.9
		c0.7,0,1.4-0.2,2.2-0.5c0.8-0.3,1.3-0.6,1.7-1v-13h2.7v14.4c0,0.5,0,1,0,1.5s-0.1,1.1-0.1,1.6c-0.1,0.6-0.2,1.1-0.3,1.6
		c-0.1,0.6-0.3,1-0.5,1.3c-0.4,0.7-0.8,1.1-1.4,1.6s-1.2,0.9-2,1.1c-0.8,0.3-1.4,0.5-2.2,0.7c-0.8,0.1-1.5,0.2-2.2,0.2L-19.3,455.3z
		"/>
	<path class="st0" d="M0.8,448.9c-1.7,0.2-3.2-0.1-4.1-0.9s-1.5-1.8-1.5-3.2v-10.4h-1.8v-1.6h1.8v-4.5l2.7-1v5.4h3v1.6h-3v10.3
		c0,1.1,0.3,1.7,0.8,2.1c0.6,0.4,1.2,0.6,2.2,0.6L0.8,448.9L0.8,448.9z"/>
	<path class="st0" d="M15.4,448.7v-10.2c0-0.5-0.1-1-0.2-1.4c-0.1-0.5-0.3-0.9-0.6-1.2s-0.6-0.7-1-1s-0.9-0.4-1.3-0.4
		c-0.9,0-1.6,0.2-2.4,0.6s-1.4,0.9-2.1,1.3v12.2H5.1v-24.4l2.7-0.9v11.2c0.8-0.6,1.6-1.1,2.6-1.3c0.9-0.3,1.9-0.5,3-0.5
		c0.7,0,1.3,0.1,1.9,0.4s1.1,0.6,1.5,1.1s0.8,1,1,1.6s0.4,1.2,0.4,1.9v11H15.4L15.4,448.7z"/>
	<path class="st0" d="M28.7,449c-1.2,0-2.3-0.3-3.2-0.8s-1.6-1.1-2.3-1.9c-0.6-0.8-1.1-1.7-1.3-2.8c-0.3-1.1-0.5-2.1-0.5-3.2
		s0.2-2.1,0.5-3.1s0.8-1.8,1.4-2.6c0.7-0.8,1.4-1.3,2.3-1.7c0.9-0.4,1.9-0.7,3.1-0.7c1.1,0,2.2,0.2,3.1,0.7c0.9,0.5,1.7,1.1,2.3,1.7
		c0.7,0.8,1.1,1.6,1.4,2.6c0.3,1,0.5,2,0.5,3.1s-0.2,2.1-0.5,3.2s-0.8,1.9-1.3,2.8c-0.6,0.8-1.4,1.4-2.3,1.9
		C31,448.7,29.9,449,28.7,449z M24.4,440.5c0,0.8,0.1,1.5,0.2,2.4c0.1,0.8,0.4,1.5,0.7,2.2c0.4,0.7,0.8,1.2,1.3,1.6
		c0.6,0.5,1.2,0.7,2.1,0.7c1,0,1.6-0.2,2.2-0.7c0.6-0.5,1.1-1,1.3-1.6c0.3-0.7,0.6-1.4,0.7-2.2c0.1-0.8,0.2-1.6,0.2-2.4
		s-0.1-1.4-0.2-2.2c-0.2-0.7-0.4-1.3-0.8-1.9s-0.8-1.1-1.3-1.4c-0.6-0.4-1.2-0.6-2.1-0.7c-1,0.1-1.6,0.3-2.2,0.7
		c-0.6,0.4-1,0.9-1.3,1.4c-0.4,0.6-0.6,1.2-0.7,1.9C24.4,439.1,24.3,439.7,24.4,440.5L24.4,440.5z"/>
	<path class="st0" d="M49.4,448.7v-10.8c0-1.2-0.4-2.2-1.1-2.8c-0.8-0.7-1.6-1-2.9-1c-0.7,0-1.3,0.2-2,0.4c-0.7,0.3-1.1,0.6-1.6,0.9
		v13.3h-2.7V435c0.7-0.5,1.3-1,2-1.2c0.7-0.4,1.4-0.7,2.2-0.9c0.7-0.2,1.4-0.4,2.3-0.5s1.7-0.1,2.7,0.2c1,0.2,1.8,0.7,2.6,1.3
		c0.8,0.7,1.1,1.5,1.1,2.7v12.1H49.4L49.4,448.7z"/>
</g>
<path class="st0" d="M152.5,438.1H148l0.9-1.8h6v9.5c-1.3,1.1-2.4,1.8-3.5,2.3s-2.6,0.7-4,0.7s-2.8-0.4-3.9-1.1
	c-1.1-0.8-1.8-1.6-2.6-2.8c-0.6-0.9-3.2-5.7-1.6-11.7c0.7-2.6,1.7-4.8,3.8-6.4c1.6-1.2,3.9-1.5,5.9-1.2c0.6,0.1,3,0.5,5.1,2
	l-0.9,1.4c-0.9-0.6-1.7-1-2.6-1.1c-0.9-0.2-1.8-0.4-2.7-0.4c-1.2,0-2.2,0.3-3.1,1c-0.8,0.6-1.4,1.4-1.9,2.3c-0.5,1-0.9,2-1.1,3.1
	c-0.2,1.1-0.3,2.2-0.4,3.2c0,1,0.1,1.9,0.3,3.1c0.2,1.1,0.6,2.2,1.1,3.2s1.1,1.8,1.9,2.5c0.8,0.7,1.8,1.1,2.9,1.1
	c1,0,1.7-0.1,2.5-0.4c0.7-0.3,1.4-0.6,2.1-1.1v-7.2h0.3V438.1z"/>
<g>
	<g>
		<g>
			<defs>
				<rect id="SVGID_1_" x="-119" y="386.2" width="66.6" height="64.6"/>
			</defs>
			<clipPath id="SVGID_2_">
				<use xlink:href="#SVGID_1_"  style="overflow:visible;"/>
			</clipPath>
			<path class="st1" d="M-56.3,410.4c-1.1-4.5-3.2-7.8-7.7-7.8h-5.8v6.8c0,5.3-4.5,9.8-9.6,9.8h-15.4c-4.2,0-7.7,3.6-7.7,7.8v14.7
				c0,4.2,3.6,6.6,7.7,7.8c2.5,0.7,5,1.2,7.6,1.2c2.4,0,4.9-0.4,7.7-1.2c3.9-1.1,7.7-3.4,7.7-7.8v-5.9h-15.4v-2h23.1
				c4.5,0,6.1-3.1,7.7-7.8C-54.7,421.2-54.8,416.6-56.3,410.4z M-78.5,439.7c1.6,0,2.9,1.3,2.9,2.9s-1.3,2.9-2.9,2.9
				c-1.6,0-2.9-1.3-2.9-2.9C-81.3,441-80,439.7-78.5,439.7z"/>
		</g>
	</g>
	<rect x="-119" y="386.2" class="st2" width="66.6" height="64.6"/>
</g>
<g>
	<g>
		
			<linearGradient id="SVGID_4_" gradientUnits="userSpaceOnUse" x1="-116.9466" y1="391.4861" x2="-82.8731" y2="421.5508" gradientTransform="matrix(1 0 0 1 0 -0.62)">
			<stop  offset="0" style="stop-color:#599ED3"/>
			<stop  offset="1" style="stop-color:#306998"/>
		</linearGradient>
		<path id="SVGID_3_" class="st3" d="M-87.4,386.2c-2.6,0-5.1,0.2-7.4,0.6c-6.5,1.2-7.7,3.6-7.7,8v5.9h15.4v2h-21.2
			c-4.5,0-8.4,2.7-9.6,7.8c-1.4,5.9-1.5,9.5,0,15.6c1.1,4.6,3.7,7.8,8.2,7.8h5.3v-7c0-5.1,4.4-9.6,9.6-9.6h15.4
			c4.3,0,7.7-3.5,7.7-7.8v-14.6c0-4.2-3.5-7.3-7.7-8C-82.1,386.4-84.8,386.2-87.4,386.2L-87.4,386.2z M-95.8,390.9
			c1.6,0,2.9,1.3,2.9,2.9s-1.3,2.9-2.9,2.9s-2.9-1.3-2.9-2.9C-98.6,392.2-97.4,390.9-95.8,390.9L-95.8,390.9z"/>
	</g>
</g>
<path class="st4" d="M-52.8,419.7C-52.8,419.5-52.9,419.6-52.8,419.7c-0.1,1.2-0.2,2.3-0.4,3.4c0,0.2-0.1,0.4-0.1,0.7
	c-0.2,1-0.5,2-0.8,3c-1.5,4.5-3.6,9.4-9.9,9.4h-5.4v6.5C-58.3,440.3-51.4,441.5-52.8,419.7z"/>
</svg>
